<svg xmlns="http://www.w3.org/2000/svg">
    <symbol id="phone">
        <path d="M6.54 5.5C6.6 6.39 6.75 7.26 6.99 8.09L5.79 9.29C5.38 8.09 5.12 6.82 5.03 5.5H6.54ZM16.4 17.52C17.25 17.76 18.12 17.91 19 17.97V19.46C17.68 19.37 16.41 19.11 15.2 18.71L16.4 17.52ZM7.5 3.5H4C3.45 3.5 3 3.95 3 4.5C3 13.89 10.61 21.5 20 21.5C20.55 21.5 21 21.05 21 20.5V17.01C21 16.46 20.55 16.01 20 16.01C18.76 16.01 17.55 15.81 16.43 15.44C16.33 15.4 16.22 15.39 16.12 15.39C15.86 15.39 15.61 15.49 15.41 15.68L13.21 17.88C10.38 16.43 8.06 14.12 6.62 11.29L8.82 9.09C9.1 8.81 9.18 8.42 9.07 8.07C8.7 6.95 8.5 5.75 8.5 4.5C8.5 3.95 8.05 3.5 7.5 3.5Z"/>
    </symbol>
    <symbol id="mail">
        <path d="M12 2.5C6.48 2.5 2 6.98 2 12.5C2 18.02 6.48 22.5 12 22.5H17V20.5H12C7.66 20.5 4 16.84 4 12.5C4 8.16 7.66 4.5 12 4.5C16.34 4.5 20 8.16 20 12.5V13.93C20 14.72 19.29 15.5 18.5 15.5C17.71 15.5 17 14.72 17 13.93V12.5C17 9.74 14.76 7.5 12 7.5C9.24 7.5 7 9.74 7 12.5C7 15.26 9.24 17.5 12 17.5C13.38 17.5 14.64 16.94 15.54 16.03C16.19 16.92 17.31 17.5 18.5 17.5C20.47 17.5 22 15.9 22 13.93V12.5C22 6.98 17.52 2.5 12 2.5ZM12 15.5C10.34 15.5 9 14.16 9 12.5C9 10.84 10.34 9.5 12 9.5C13.66 9.5 15 10.84 15 12.5C15 14.16 13.66 15.5 12 15.5Z"/>
    </symbol>
</svg>
